# xmcd
#
# Track frame offsets: 
#        150
#        8400
#        18068
#        30730
#        41605
#        55680
#        69450
#        81075
#        92550
#        102332
#        121607
#        132373
#
# Disc length: 1845 seconds
#
# Revision: 0
# Processed by: cddbd v1.5.2PL0 Copyright (c) Steve Scherf et al.
# Submitted via: ExactAudioCopyFreeDBPlugin 1.0
#
DISCID=8307330c
DTITLE=The Bluegrass Revival - God's Not Dead At My House
DYEAR=2002
DGENRE=Bluegrass
TTITLE0=Get In Line Brother
TTITLE1=Down To The River
TTITLE2=I Found Grace
TTITLE3=The Clouds Opened Up
TTITLE4=Christmas In West Virginia
TTITLE5=God's Not Dead At My House
TTITLE6=When I Thank Him
TTITLE7=Will The Circle Be Unbroken
TTITLE8=God Has Been So Good To Me
TTITLE9=Just Want to Thank You Lord
TTITLE10=Little White Church
TTITLE11=Are You Washed In The Blood
EXTD=
EXTT0=
EXTT1=
EXTT2=
EXTT3=
EXTT4=
EXTT5=
EXTT6=
EXTT7=
EXTT8=
EXTT9=
EXTT10=
EXTT11=
PLAYORDER=
